# xmcd CD database file
#
# Track frame offsets:
#	150
#	24275
#	40197
#	60750
#	79867
#	103307
#	120815
#	144087
#	168527
#	183407
#
# Disc length: 2827 seconds
#
# Revision: 1
# Processed by: cddbd v1.5.2PL0 Copyright (c) Steve Scherf et al.
# Submitted via: FreeDB 13.2
#
DISCID=700b090a
DTITLE=The Storm - Where the Storm Meets the Ground
DYEAR=2008
DGENRE=Alternative Rock
TTITLE0=Drops in the Ocean
TTITLE1=Lullaby
TTITLE2=Hold This Heart Together
TTITLE3=Beauty of Small Things
TTITLE4=The Table's Turning
TTITLE5=Friendly Advise
TTITLE6=Caught Sleeping
TTITLE7=Everchanging
TTITLE8=Where the Storm Meets the Ground
TTITLE9=Lay Down Your Head
EXTD=The Storm are Pernille Rosendahl and Johan Wohlert.\nProduced by Roy Thom
EXTD=as Baker.\nUniversal Music 6025 174 714 0\n\n
EXTT0=
EXTT1=
EXTT2=
EXTT3=
EXTT4=
EXTT5=
EXTT6=
EXTT7=
EXTT8=
EXTT9=
PLAYORDER=
